<?xml version="1.0" standalone="no"?>
<!DOCTYPE svg PUBLIC "-//W3C//DTD SVG 20010904//EN"
 "http://www.w3.org/TR/2001/REC-SVG-20010904/DTD/svg10.dtd">
<svg version="1.0" xmlns="http://www.w3.org/2000/svg"
 width="300.000000pt" height="300.000000pt" viewBox="0 0 300.000000 300.000000"
 preserveAspectRatio="xMidYMid meet">
<metadata>
Created by potrace 1.14, written by Peter Selinger 2001-2017
</metadata>
<g transform="translate(0.000000,300.000000) scale(0.100000,-0.100000)"
fill="#000000" stroke="none">
<path d="M1738 2995 c-2 -2 -28 -6 -58 -9 -453 -52 -842 -308 -1068 -704 -23
-41 -42 -75 -42 -78 0 -2 -11 -27 -25 -56 -50 -107 -105 -312 -122 -453 -10
-89 -10 -430 0 -515 18 -149 78 -353 140 -475 199 -397 540 -632 1002 -691
119 -15 478 -9 590 11 17 3 46 8 65 11 68 12 78 14 166 40 106 30 204 72 205
88 1 17 1 560 0 573 -1 7 -36 -6 -84 -32 -175 -92 -365 -137 -592 -139 -77 -1
-130 5 -253 30 -147 29 -345 173 -437 318 -107 169 -150 332 -149 576 0 211
28 340 107 499 66 132 196 270 318 338 43 25 164 73 198 80 177 35 389 38 492
7 9 -2 32 -7 51 -9 51 -7 204 -62 277 -101 35 -19 66 -32 69 -29 3 2 5 142 6
310 l1 305 -25 9 c-88 33 -229 67 -323 77 -29 2 -63 8 -77 11 -25 6 -426 13
-432 8z"/>
</g>
</svg>
